Coordinates
version=1
nRows=27
nColumns=12
inDegrees=yes

Units are S.I. units (second, meters, Newtons, ...)
Angles are in degrees

endheader
time	SC_y	SC_z	SC_x	AC_y	AC_z	AC_x	GH_y	GH_z	GH_yy	EL_x	PS_y
       0.0              -48.79          5.588          28.02          41.76         -15.04         0.1002         -154.9          26.02         -132.3          32.12          158.7
  0.006279              -48.79          5.589          28.02          41.76         -15.04        0.09933         -154.9          26.03         -132.2          32.13          158.7
   0.01256              -48.79           5.59          28.02          41.77         -15.04        0.09846         -154.9          26.03         -132.2          32.15          158.7
   0.01884              -48.78          5.591          28.03          41.77         -15.04        0.09753         -154.9          26.04         -132.2          32.16          158.7
   0.02512              -48.78          5.592          28.03          41.77         -15.04        0.09655         -154.8          26.05         -132.1          32.18          158.7
    0.0314              -48.78          5.593          28.04          41.78         -15.04        0.09549         -154.8          26.07         -132.1          32.19          158.7
   0.03768              -48.78          5.594          28.04          41.78         -15.04        0.09437         -154.8          26.08         -132.0          32.21          158.6
   0.04396              -48.77          5.595          28.05          41.78         -15.04        0.09317         -154.7          26.09         -132.0          32.23          158.6
   0.05023              -48.77          5.597          28.05          41.79         -15.04        0.09188         -154.7           26.1         -131.9          32.25          158.6
   0.05651              -48.77          5.598          28.06          41.79         -15.04         0.0905         -154.7          26.12         -131.9          32.27          158.6
   0.06279              -48.76            5.6          28.07           41.8         -15.04        0.08902         -154.6          26.13         -131.8          32.29          158.6
   0.06907              -48.76          5.601          28.07           41.8         -15.04        0.08743         -154.6          26.15         -131.7          32.32          158.6
   0.07535              -48.75          5.603          28.08           41.8         -15.04        0.08571         -154.6          26.17         -131.7          32.35          158.6
   0.08163              -48.75          5.605          28.09          41.81         -15.04        0.08385         -154.5          26.19         -131.6          32.38          158.6
   0.08791              -48.74          5.607           28.1          41.82         -15.04        0.08184         -154.5          26.21         -131.5          32.41          158.5
   0.09419              -48.74          5.609          28.11          41.82         -15.04        0.07966         -154.4          26.23         -131.4          32.44          158.5
    0.1005              -48.73          5.612          28.12          41.83         -15.04        0.07729         -154.4          26.26         -131.3          32.48          158.5
    0.1067              -48.73          5.615          28.13          41.84         -15.04        0.07471         -154.3          26.28         -131.2          32.52          158.5
     0.113              -48.72          5.618          28.14          41.85         -15.04        0.07189         -154.2          26.31         -131.1          32.56          158.5
    0.1193              -48.71          5.621          28.15          41.85         -15.04        0.06881         -154.2          26.35         -130.9          32.61          158.4
    0.1256               -48.7          5.624          28.17          41.86         -15.04        0.06542         -154.1          26.38         -130.8          32.67          158.4
    0.1319              -48.69          5.628          28.18          41.88         -15.03        0.06169         -154.0          26.42         -130.6          32.73          158.4
    0.1381              -48.68          5.632           28.2          41.89         -15.03        0.05757         -153.9          26.46         -130.4          32.79          158.3
    0.1444              -48.67          5.637          28.22           41.9         -15.03        0.05301         -153.8          26.51         -130.2          32.86          158.3
    0.1507              -48.66          5.642          28.24          41.92         -15.03        0.04794         -153.7          26.57         -130.0          32.94          158.3
     0.157              -48.64          5.648          28.27          41.93         -15.03        0.04228         -153.5          26.63         -129.8          33.03          158.2
    0.1633              -48.63          5.655           28.3          41.95         -15.03        0.03594         -153.4          26.69         -129.5          33.13          158.2
